# xmcd
#
# Track frame offsets:
#	150
#	20711
#	39431
#	55997
#	84978
#	104340
#	120877
#	139900
#	158673
#	185471
#
# Disc length: 2794 seconds
# Revision: 0
# Processed by: cddbd v1.5.2PL0 Copyright (c) Steve Scherf et al.
# Submitted via: dBpowerAMP V12.0
#
DISCID=790ae80a
DTITLE=Big Erle - Coastal Yokel Blues
DYEAR=2014
DGENRE=Blues Country
TTITLE0=No Working Blues 
TTITLE1=Whoop Whoop 
TTITLE2=Departed Blues
TTITLE3=Devils Hole Road
TTITLE4=Drunken Blues
TTITLE5=Pony Blues 
TTITLE6=Sunrise 
TTITLE7=She Loves Me Blues
TTITLE8=Find  My Way  Blues
TTITLE9=The Last Lament Of A Foolish Man
EXTD=
EXTT0=
EXTT1=
EXTT2=
EXTT3=
EXTT4=
EXTT5=
EXTT6=
EXTT7=
EXTT8=
EXTT9=
PLAYORDER=
